PathFileType	4	(X/Y/Z)	Patient4_TMGait_0pt7_02_right_43.trc.trc
DataRate	CameraRate	NumFrames	NumMarkers	Units	OrigDataRate	OrigDataStartFrame	OrigNumFrames
87.500000000000	87.500000000000	4	33	mm	87.500000000000	124	       141
Frame#	Time	Sacral			L.Shoulder			Chest			R.Shoulder			Neck			R.ASIS			L.ASIS			R.Thigh.Superior			R.Thigh.Lateral			R.Thigh.Inferior			R.Patella			L.Thigh.Superior			L.Thigh.Lateral			L.Thigh.Inferior			L.Patella			L.Shank.Superior			L.Shank.Lateral			L.Shank.Inferior			R.Shank.Superior			R.Shank.Lateral			R.Shank.Inferior			R.Heel			R.Midfoot.Superior			R.Midfoot.Lateral			R.Toe			L.Heel			L.Midfoot.Lateral			L.Midfoot.Superior			L.Toe			L.Elbow			L.Wrist			R.Elbow			R.Wrist			
		X1	Y1	Z1	X2	Y2	Z2	X3	Y3	Z3	X4	Y4	Z4	X5	Y5	Z5	X6	Y6	Z6	X7	Y7	Z7	X8	Y8	Z8	X9	Y9	Z9	X10	Y10	Z10	X11	Y11	Z11	X12	Y12	Z12	X13	Y13	Z13	X14	Y14	Z14	X15	Y15	Z15	X16	Y16	Z16	X17	Y17	Z17	X18	Y18	Z18	X19	Y19	Z19	X20	Y20	Z20	X21	Y21	Z21	X22	Y22	Z22	X23	Y23	Z23	X24	Y24	Z24	X25	Y25	Z25	X26	Y26	Z26	X27	Y27	Z27	X28	Y28	Z28	X29	Y29	Z29	X30	Y30	Z30	X31	Y31	Z31	X32	Y32	Z32	X33	Y33	Z33	

124	50.125714285714	725.060009854403	1002.018512171965	460.326653921725	939.106249661780	1423.110616906049	285.318961707774	1028.552961535187	1346.293424289248	451.361425809903	938.824431308119	1428.738943217306	617.995000551035	928.780673226730	1480.220614597886	437.817801262299	944.660460329813	928.408047051328	587.223105790562	942.170773168963	944.566394224110	313.984623637206	1014.833795300560	755.341447389369	560.159664242851	963.459085186054	633.559073012805	629.475858667275	1053.123917179922	597.380423860721	550.571572124528	1080.843800725243	512.140904663675	565.563573883313	949.149633096792	720.401555247712	341.635165100562	837.442887372348	623.099374461945	276.585670198541	899.589736189378	529.562670261873	342.064346901010	886.080072961039	457.587399514934	349.357136821490	842.278882873228	393.116447148801	340.515014356174	730.466263628410	302.223401978623	285.096443903245	749.996235634820	182.357138146616	354.961459936220	1062.368335840957	421.421052426239	575.958731162609	1003.715524408807	308.320012149304	635.603431973248	1071.114249832350	221.265334315465	583.107247619566	971.903953360822	41.011356355450	550.471321235492	1135.168225268350	108.436449503423	591.080312466161	1055.351130147164	36.600204816417	624.336992564939	1259.444789704463	68.598275333667	618.084240535640	596.958295892151	40.938117562636	389.427728425230	672.025197121438	35.856151087904	310.287654973110	756.898467535344	94.714874652866	339.198554056331	884.469488219713	39.549398964831	310.132709322819	1019.857658039528	1110.132505041328	130.503771257508	1255.583401018324	1150.250683278229	211.817001221569	755.172563763451	1144.599020256046	734.962760990826	686.303940719079	891.240672866183	741.490456465462	
125	50.137142857143	726.702084389617	999.714307442667	463.355577566369	938.475026716840	1421.566743427330	287.630077941241	1029.249656198404	1345.114170250663	453.250149651708	939.913898988945	1427.084401462772	620.376284164555	928.951116636411	1478.629883248880	440.291452728232	947.159345156640	926.602580956713	589.156171669527	943.553728270899	943.429676522766	316.210578668893	1017.125374957444	752.437695795565	562.195073357790	963.655865964791	631.121786038144	630.064210842687	1053.214181553454	594.743083954808	551.323617520621	1079.215481486005	509.216270434948	565.155318913003	951.863760862272	718.677440331809	343.195231266318	840.429770709509	620.680320577594	278.898175346975	903.830841473828	527.125553373439	343.726787055764	890.533474042925	453.915848972173	350.240833692236	843.901438316873	390.369757293209	341.791616857771	729.174258319308	303.085111641770	286.487915262936	745.507886870721	182.319478408646	355.269552832974	1060.933198544733	418.230711172032	575.488819474358	1002.110110615443	305.391338591926	635.260871536055	1068.175042545172	218.154521744634	581.890997853201	966.604101647020	40.358489507724	549.424551933285	1130.703936140902	105.325166326678	589.651387409801	1049.625653252466	35.852586070354	623.783920311753	1254.350112700941	63.691197028563	617.369807435775	589.243629307084	44.040280790371	389.198320742125	664.277477144662	37.431299118044	310.240054714720	750.097409242701	95.123299608462	338.934835501714	876.606685469465	39.265396342958	309.985769994248	1018.744919401737	1108.338817897337	132.353922604971	1253.654004643577	1151.924146855167	213.832778238282	756.829667357281	1142.329218914392	736.418489838791	686.600457619408	889.193641769750	741.916345301795	
126	50.148571428571	728.058400864827	997.732419484361	466.355018757607	937.929473430091	1420.212804578013	289.970404393105	1029.992581201897	1344.051034904624	455.171949041794	941.108047805910	1425.539154414797	622.838950243162	929.334059073939	1477.275948505890	442.859525002589	949.414324065404	925.207850947882	591.191530232976	944.699131276294	942.328275038272	318.436939312192	1019.581298664243	750.313087326239	564.227033776226	964.345044482502	629.407734795472	630.638257245474	1053.813787428227	592.898433442135	552.076590457825	1078.256930084346	506.877739957624	564.727292929528	955.058014932803	717.326436602183	345.026263444436	844.544911158029	618.239801481365	281.391906566694	909.610888884069	524.881600710150	345.628202188554	896.611210809029	450.282117456309	351.207932244019	846.949979050321	387.758869769264	343.103696076260	729.117237538024	304.611346221591	288.007214266345	741.928780510525	182.911616389383	355.534978986890	1059.770005016730	415.599370336467	574.895947987247	1000.479186686940	303.303217019678	635.069300281395	1064.496001199067	215.536203264603	580.613747101256	959.660554772358	40.317083917377	548.598796530926	1124.872607559283	102.755204340515	588.419114832200	1042.347287677328	35.566544989019	623.340484914171	1247.773398308581	59.008310533653	616.585951835818	581.981504346911	48.704484662664	388.998053382701	656.805738391976	39.969432885639	310.215474585394	743.898041079043	95.859183288917	338.573356313392	868.759996405705	38.917218914201	309.843744075816	1016.774501458541	1106.180486022372	134.468925295139	1251.292154990123	1152.143246943523	215.710452126888	759.715169714312	1139.141479105649	737.945048746452	688.573118891413	886.131323911994	742.329155617750	
127	50.160000000000	729.125448830339	996.157707064817	469.285248761184	937.522251384483	1419.118147709358	292.302321657824	1030.763307031587	1343.152017928590	457.103375532745	942.385236757772	1424.190172929873	625.324756582680	929.934357979535	1476.222405619171	445.460558219489	951.390821156794	924.299045934144	593.338452428103	945.572454048399	941.320163669395	320.609607783434	1022.032957166636	748.953760514694	566.245711190305	965.390338092404	628.398484964961	631.291530068415	1054.711061787793	591.763701768621	552.858513118785	1077.791592074452	505.112864973518	564.388421846283	958.652423062970	716.442729662841	347.150056008344	849.794852049872	615.889255558997	283.990195125871	916.902873575533	522.969751002852	347.721125914927	904.270393600398	446.854970287430	352.218166838994	851.475705445085	385.417962406871	344.387313764003	730.402552391459	306.913027790654	289.617197304839	739.414309093321	184.274330966470	355.746854956519	1058.770697124855	413.541072787064	574.316792472948	998.815540998623	301.984857825261	635.107303293685	1060.274373181796	213.434358617737	579.413551070625	951.657392968730	40.647776376200	548.040257235643	1118.101236428970	100.813341866947	587.465417833296	1034.111079071770	35.599553981725	623.046900870191	1240.225477716662	54.909576371752	615.851883864909	575.377323239185	55.182608346331	388.878916030153	649.733896160012	43.683506066101	310.245686615576	738.428948065135	96.997442528187	338.135355208268	860.928814454642	38.482169303342	309.724191596147	1013.913573849216	1103.728599437063	136.864724082272	1248.529216184272	1150.878322291133	217.437972247726	763.782064674859	1135.186023857197	739.526006669778	692.289917704844	882.168106232517	742.749967100056	
